<svg width="67" height="30" viewBox="0 0 67 30" fill="none" xmlns="http://www.w3.org/2000/svg">
<path d="M7.67789 28.0088V15.0707L11.3747 21.1844V29.5728C10.4647 29.459 8.53099 28.4829 7.67789 28.0088Z" fill="#1F1F1F"/>
<path d="M25.7192 4.61119C23.0094 1.77744 19.2934 0.123484 15.3742 0.00663798C11.4549 -0.110208 7.64701 1.31944 4.77312 3.9867C1.89924 6.65399 0.190088 10.3448 0.0149199 14.2616C-0.160248 18.1786 1.21263 22.0071 3.83696 24.9203L4.14646 14.4464C4.27312 11.6146 5.5088 8.9462 7.58655 7.01782C9.66433 5.08942 12.4174 4.05582 15.2509 4.1403C18.0845 4.22479 20.771 5.42055 22.7302 7.46929L25.7192 4.61119Z" fill="#1F1F1F"/>
<path d="M14.9292 29.8571C16.8898 29.8571 18.8311 29.471 20.6424 28.7209C22.4537 27.9705 24.0995 26.8709 25.4858 25.4847L22.5614 22.5604C21.5592 23.5627 20.3693 24.3577 19.0597 24.9001C17.7502 25.4425 16.3467 25.7216 14.9292 25.7216V29.8571Z" fill="#1F1F1F"/>
<path d="M22.4649 15.0707C22.4649 19.1539 19.1548 22.4639 15.0714 22.4639C10.9881 22.4639 7.67789 19.1539 7.67789 15.0707C7.67789 10.9876 10.9881 7.67755 15.0714 7.67755C19.1548 7.67755 22.4649 10.9876 22.4649 15.0707ZM11.1469 15.0707C11.1469 17.2381 12.9039 18.9951 15.0714 18.9951C17.2389 18.9951 18.996 17.2381 18.996 15.0707C18.996 12.9034 17.2389 11.1464 15.0714 11.1464C12.9039 11.1464 11.1469 12.9034 11.1469 15.0707Z" fill="#1F1F1F"/>
<path d="M32.7391 23.317C31.1466 23.317 29.7913 22.9947 28.6726 22.3502C27.5732 21.7056 26.7296 20.7957 26.1419 19.6204C25.5542 18.4451 25.2604 17.0802 25.2604 15.5257C25.2604 13.8765 25.5542 12.4547 26.1419 11.2604C26.7485 10.0661 27.5922 9.14671 28.6726 8.50217C29.7723 7.83868 31.071 7.50693 32.5685 7.50693C34.3128 7.50693 35.7346 7.88605 36.8339 8.64434C37.9526 9.40263 38.7583 10.4452 39.2511 11.7722C39.7442 13.0992 39.9051 14.6158 39.7345 16.3219H29.3551C29.3551 17.156 29.4879 17.8669 29.7532 18.4545C30.0376 19.0233 30.4357 19.4498 30.9476 19.7341C31.4594 20.0185 32.0566 20.1607 32.7391 20.1607C33.5165 20.1607 34.1706 19.9806 34.7012 19.6204C35.2321 19.2602 35.5734 18.7863 35.7249 18.1986H39.6492C39.5354 19.2413 39.1658 20.1512 38.5401 20.9284C37.9145 21.6867 37.0995 22.2744 36.0946 22.6914C35.109 23.1085 33.9903 23.317 32.7391 23.317ZM29.3551 14.1324L28.9854 13.7343H36.0377L35.6396 14.1324C35.6777 13.3362 35.564 12.6916 35.2984 12.1988C35.0521 11.6869 34.6918 11.2983 34.2178 11.0329C33.7628 10.7675 33.2131 10.6348 32.5685 10.6348C31.9241 10.6348 31.3553 10.777 30.8623 11.0613C30.3885 11.3267 30.0188 11.7248 29.7532 12.2556C29.507 12.7675 29.3742 13.393 29.3551 14.1324ZM43.3246 23.0326V11.1467H40.9359V7.79128H43.3246V6.17046C43.3246 4.91931 43.7131 3.96197 44.4905 3.29849C45.2677 2.635 46.3577 2.30325 47.7607 2.30325H50.6897V5.14679H48.9835C48.4148 5.14679 48.0167 5.26053 47.7892 5.48801C47.5804 5.7155 47.4764 6.02829 47.4764 6.42638V7.79128H50.4622V11.1467H47.4764V23.0326H43.3246ZM58.9028 23.2886C57.7463 23.2886 56.7035 23.1179 55.7747 22.7767C54.8457 22.4165 54.0401 21.8952 53.3576 21.2128C52.6751 20.5303 52.1536 19.7057 51.7936 18.7389C51.4333 17.7531 51.2533 16.6442 51.2533 15.412C51.2533 13.8385 51.5564 12.4642 52.1633 11.2888C52.7698 10.0945 53.642 9.16565 54.7795 8.50217C55.9169 7.83868 57.2913 7.50693 58.9028 7.50693C60.0402 7.50693 61.0733 7.68701 62.0024 8.0472C62.9311 8.40739 63.7273 8.9287 64.391 9.61114C65.0735 10.2936 65.5948 11.1182 65.9551 12.085C66.3341 13.0518 66.5238 14.1608 66.5238 15.412C66.5238 16.9664 66.2204 18.3408 65.6138 19.5351C65.007 20.7104 64.1351 21.6298 62.9976 22.2933C61.8789 22.9568 60.514 23.2886 58.9028 23.2886ZM58.8743 19.9048C59.5568 19.9048 60.154 19.7436 60.6658 19.4213C61.1965 19.0801 61.5946 18.5778 61.8602 17.9143C62.1445 17.2508 62.2867 16.4167 62.2867 15.412C62.2867 14.6537 62.2108 13.9997 62.0592 13.4499C61.9074 12.8812 61.6799 12.4073 61.3768 12.0282C61.0733 11.649 60.713 11.3741 60.2962 11.2035C59.879 11.0139 59.4146 10.9192 58.9028 10.9192C58.2203 10.9192 57.6135 11.0803 57.0828 11.4026C56.571 11.7248 56.1729 12.2177 55.8885 12.8812C55.6041 13.5447 55.4619 14.3883 55.4619 15.412C55.4619 16.1702 55.5376 16.8337 55.6894 17.4024C55.8601 17.9522 56.0969 18.4166 56.4003 18.7958C56.7035 19.156 57.0638 19.4308 57.4809 19.6204C57.8978 19.81 58.3625 19.9048 58.8743 19.9048Z" fill="#1F1F1F"/>
</svg>
